<?xml version="1.0" encoding="UTF-8" standalone="no"?>
<!-- Created with Inkscape (http://www.inkscape.org/) -->

<svg
   width="120"
   height="120"
   viewBox="0 0 120 120"
   version="1.1"
   id="svg5"
   xmlns:inkscape="http://www.inkscape.org/namespaces/inkscape"
   xmlns:sodipodi="http://sodipodi.sourceforge.net/DTD/sodipodi-0.dtd"
   xmlns="http://www.w3.org/2000/svg"
   xmlns:svg="http://www.w3.org/2000/svg">
  <sodipodi:namedview
     id="namedview7"
     pagecolor="#505050"
     bordercolor="#ffffff"
     borderopacity="1"
     inkscape:showpageshadow="0"
     inkscape:pageopacity="0"
     inkscape:pagecheckerboard="1"
     inkscape:deskcolor="#505050"
     inkscape:document-units="px"
     showgrid="false" />
  <defs
     id="defs2" />
  <g
     inkscape:label="Layer 1"
     inkscape:groupmode="layer"
     id="layer1">
    <rect
       style="fill:#d4aa00;fill-opacity:1;stroke:none;stroke-width:0.500452;stroke-linecap:round;stroke-linejoin:miter;stroke-dasharray:none;stroke-opacity:1"
       id="rect1873"
       width="102.04378"
       height="81.024467"
       x="8.1621151"
       y="21.753757" />
    <path
       style="color:#000000;fill:#f2f2f2;fill-opacity:1;stroke:none;stroke-linecap:round;stroke-linejoin:round;-inkscape-stroke:none"
       d="m 84.080303,14.862087 c 6.663781,0 12.697403,0.563029 17.033207,1.462891 2.16791,0.449929 3.91262,0.988616 5.07422,1.558593 0.5808,0.28499 1.01423,0.578852 1.27734,0.845703 0.23576,0.239109 0.31539,0.429134 0.33203,0.59961 v 78.390625 c -0.32973,-0.260173 -0.70345,-0.506446 -1.16796,-0.734375 -1.29095,-0.633443 -3.09508,-1.178456 -5.3125,-1.638672 -4.434919,-0.920428 -10.516474,-1.484375 -17.236337,-1.484375 -6.719862,0 -12.803383,0.563947 -17.238281,1.484375 -2.217451,0.460216 -4.021561,1.005229 -5.3125,1.638672 -0.558842,0.274215 -1.00252,0.570141 -1.365235,0.894531 V 19.328884 h 0.197266 c 0.01697,-0.170498 0.09819,-0.360459 0.333984,-0.59961 0.26311,-0.266851 0.694593,-0.560713 1.275391,-0.845703 1.161599,-0.569977 2.906316,-1.108664 5.074219,-1.558593 4.335806,-0.899862 10.371376,-1.462891 17.035156,-1.462891 z"
       id="path1786" />
    <path
       id="path1866"
       style="color:#000000;fill:#ececec;fill-opacity:1;stroke:none;stroke-linecap:round;stroke-linejoin:round;-inkscape-stroke:none"
       d="m 34.636719,94.861328 c -6.663778,0 -12.699354,0.56303 -17.035157,1.462891 -1.869499,0.387998 -3.397629,0.844969 -4.535156,1.328125 v 1.509765 c 3.611997,-2.672751 12.952631,-3.986556 22.365235,-4.003906 0.15569,-2.87e-4 0.311086,-4.22e-4 0.466797,0 9.230188,0.02499 18.420043,1.296577 22.255859,3.744141 -0.04245,-0.05739 -0.06988,-0.110008 -0.132813,-0.173828 -0.263105,-0.266851 -0.694593,-0.560714 -1.27539,-0.845704 -1.161598,-0.569976 -2.908271,-1.108665 -5.076172,-1.558593 -4.335802,-0.899861 -10.36943,-1.462891 -17.033203,-1.462891 z m 49.443359,0 c -6.663773,0 -12.699354,0.56303 -17.035156,1.462891 -2.167901,0.449928 -3.912621,0.988617 -5.074219,1.558593 -0.580797,0.28499 -1.012281,0.578853 -1.275391,0.845704 -0.09111,0.09241 -0.143199,0.172513 -0.193359,0.251953 3.759684,-2.499545 13.05524,-3.797006 22.384766,-3.822266 0.155711,-4.22e-4 0.311104,-2.87e-4 0.466797,0 9.412601,0.01735 18.753224,1.331155 22.365234,4.003906 v -1.480468 c -1.14341,-0.494393 -2.69719,-0.961378 -4.60547,-1.357422 -4.335798,-0.899861 -10.369428,-1.462891 -17.033202,-1.462891 z m -48.333984,1.113281 c -6.590542,-0.0066 -13.163879,0.625563 -17.800782,1.910157 a 0.13493424,0.22046318 0 0 1 0.0039,0.05273 v 1.308594 c 3.87569,-2.187858 11.783537,-3.255953 19.716797,-3.251953 -0.638597,-0.01253 -1.279624,-0.01889 -1.919922,-0.01953 z m 47.292968,0 c -0.640298,6.4e-4 -1.281327,0.007 -1.919921,0.01953 7.93326,-0.004 15.841198,1.0641 19.716799,3.251953 V 97.9375 a 0.13493424,0.22046318 0 0 1 0.004,-0.05273 C 96.202854,96.600169 89.629604,95.968009 83.039062,95.974609 Z m -50.617187,0.978516 c -4.100857,0.253306 -7.927469,0.816441 -10.908203,1.6875 v 0.662109 c 2.455302,-1.183565 6.422701,-1.96374 10.908203,-2.349609 z m 53.941406,0 c 4.485502,0.385869 8.452901,1.166044 10.908203,2.349609 v -0.662109 c -2.980734,-0.871059 -6.807346,-1.434194 -10.908203,-1.6875 z" />
    <path
       style="color:#000000;fill:#ffffff;fill-opacity:1;stroke:none;stroke-linecap:round;stroke-linejoin:round;-inkscape-stroke:none"
       d="m 34.636944,14.862087 c 6.66378,0 12.697397,0.563029 17.033203,1.462891 2.167903,0.449929 3.914573,0.988616 5.076172,1.558593 0.580798,0.28499 1.012284,0.578852 1.27539,0.845703 0.235753,0.239109 0.315367,0.429134 0.332032,0.59961 h 0.24414 v 78.585937 c -0.368804,-0.3395 -0.832095,-0.645082 -1.412109,-0.929687 -1.29094,-0.633443 -3.095049,-1.178456 -5.3125,-1.638672 -4.434901,-0.920428 -10.516466,-1.484375 -17.236328,-1.484375 -6.719866,0 -12.803382,0.563947 -17.238281,1.484375 -2.21745,0.460216 -4.019611,1.005229 -5.310547,1.638672 -0.465533,0.228429 -0.841141,0.475486 -1.171875,0.736328 V 19.328884 h 0.002 c 0.01697,-0.170498 0.09819,-0.360459 0.333984,-0.59961 0.26311,-0.266851 0.69459,-0.560713 1.275391,-0.845703 1.161598,-0.569977 2.906318,-1.108664 5.074218,-1.558593 4.335807,-0.899862 10.371373,-1.462891 17.035157,-1.462891 z"
       id="path1784" />
    <path
       id="path1070"
       style="color:#000000;fill:#000000;fill-opacity:1;stroke:none;stroke-linecap:round;stroke-linejoin:round;-inkscape-stroke:none"
       d="m 34.636944,13.862087 c -6.719866,0 -12.803382,0.563947 -17.238281,1.484375 -2.21745,0.460216 -4.019611,1.005229 -5.310547,1.638672 -0.645472,0.316723 -1.16632,0.653063 -1.548829,1.041016 -0.363451,0.368624 -0.6032878,0.810563 -0.6269528,1.291015 h -0.00391 v 79.923828 h 0.015625 c -0.0029,0.02969 -0.012422,0.0579 -0.013672,0.08789 H 10.91819 c 0.01697,-0.170498 0.09819,-0.360459 0.333984,-0.59961 0.26311,-0.266851 0.69459,-0.560713 1.275391,-0.845703 0.06896,-0.03384 0.159382,-0.066 0.232422,-0.09961 v 2.039062 a 0.153374,0.25670901 0 0 0 0.152343,0.255858 0.153374,0.25670901 0 0 0 0.06055,-0.0215 h 0.0078 c 1.071535,-0.827994 2.702235,-1.522002 4.699219,-2.095706 v 1.9375 a 0.13493424,0.22046318 0 0 0 0.134765,0.220706 0.13493424,0.22046318 0 0 0 0.05859,-0.0234 h 0.0078 c 0.598558,-0.343128 1.295665,-0.65933 2.074219,-0.949219 0.406842,-0.151482 0.838785,-0.29494 1.289063,-0.43164 v 1.177734 a 0.13493424,0.16074696 0 0 0 0.134765,0.160155 0.13493424,0.16074696 0 0 0 0.08398,-0.0352 0.13493424,0.16074696 0 0 0 0.002,-0.002 c 7.630635,-3.741868 30.354126,-3.482586 36.802734,0.40235 0.117515,0.0783 0.221848,0.15974 0.330078,0.24023 v 1.6211 H 9.2053032 V 21.77029 H 9.1916312 A 1.0046371,0.77071869 0 0 0 8.1935846,21.073024 1.0046371,0.77071869 0 0 0 7.1955377,21.77029 h -0.00586 v 81.51758 c 0.00103,0.55586 0.4519573,1.00591 1.0078125,1.00586 H 110.63695 c 0.5551,-10e-4 1.00483,-0.45076 1.00586,-1.00586 V 21.77029 h -0.0137 a 1.0046371,0.77071869 0 0 0 -0.99805,-0.697266 1.0046371,0.77071869 0 0 0 -0.99805,0.697266 h -0.004 v 0.0332 a 1.0046371,0.77071869 0 0 0 -0.004,0.04102 1.0046371,0.77071869 0 0 0 0.004,0.03906 v 80.39649 H 60.164287 v -1.60352 c 0.115069,-0.0865 0.227569,-0.1739 0.353516,-0.25781 6.44861,-3.884934 29.172099,-4.144216 36.802734,-0.40235 a 0.13493424,0.16074696 0 0 1 0.002,0.002 0.13493424,0.16074696 0 0 0 0.08398,0.0352 0.13493424,0.16074696 0 0 0 0.134766,-0.160153 v -1.177734 c 0.450276,0.1367 0.882222,0.280158 1.289062,0.43164 0.778552,0.289889 1.475675,0.606091 2.074225,0.949217 h 0.008 a 0.13493424,0.22046318 0 0 0 0.0586,0.0234 0.13493424,0.22046318 0 0 0 0.13477,-0.220704 v -1.9375 c 1.99699,0.573704 3.62769,1.267712 4.69922,2.095704 h 0.008 a 0.153374,0.25670901 0 0 0 0.0605,0.0215 0.153374,0.25670901 0 0 0 0.15234,-0.255856 v -2.009765 c 0.0502,0.02353 0.11392,0.04667 0.16211,0.07031 0.5808,0.28499 1.01423,0.578852 1.27734,0.845703 0.23576,0.239109 0.31539,0.429134 0.33203,0.59961 h 1.00782 c -0.004,-0.104602 -0.0229,-0.206033 -0.0469,-0.306641 h 0.0449 V 19.328884 h 0.002 c -0.0202,-0.485103 -0.26243,-0.931041 -0.62891,-1.302734 -0.38251,-0.387953 -0.9014,-0.724293 -1.54687,-1.041016 -1.29095,-0.633443 -3.09508,-1.178456 -5.3125,-1.638672 -4.434917,-0.920428 -10.516472,-1.484375 -17.236335,-1.484375 -6.719862,0 -12.803383,0.563947 -17.238281,1.484375 -2.217451,0.460216 -4.021561,1.005229 -5.3125,1.638672 -0.645468,0.316723 -1.164369,0.653063 -1.546875,1.041016 -0.354942,0.359992 -0.589772,0.790458 -0.623047,1.257812 h -0.0039 c -0.03304,-0.467354 -0.266153,-0.89782 -0.621094,-1.257812 -0.382509,-0.387953 -0.90336,-0.724293 -1.548828,-1.041016 -1.29094,-0.633443 -3.095049,-1.178456 -5.3125,-1.638672 -4.434901,-0.920428 -10.516466,-1.484375 -17.236328,-1.484375 z m 0,1 c 6.66378,0 12.697397,0.563029 17.033203,1.462891 2.167903,0.449929 3.914573,0.988616 5.076172,1.558593 0.580798,0.28499 1.012284,0.578852 1.27539,0.845703 0.235753,0.239109 0.315367,0.429134 0.332032,0.59961 h 0.24414 v 78.585937 c -0.368804,-0.3395 -0.832095,-0.645082 -1.412109,-0.929687 -1.29094,-0.633443 -3.095049,-1.178456 -5.3125,-1.638672 -4.434901,-0.920428 -10.516466,-1.484375 -17.236328,-1.484375 -6.719866,0 -12.803382,0.563947 -17.238281,1.484375 -2.21745,0.460216 -4.019611,1.005229 -5.310547,1.638672 -0.465533,0.228429 -0.841141,0.475486 -1.171875,0.736328 V 19.328884 h 0.002 c 0.01697,-0.170498 0.09819,-0.360459 0.333984,-0.59961 0.26311,-0.266851 0.69459,-0.560713 1.275391,-0.845703 1.161598,-0.569977 2.906318,-1.108664 5.074218,-1.558593 4.335807,-0.899862 10.371373,-1.462891 17.035157,-1.462891 z m 49.443359,0 c 6.663781,0 12.697403,0.563029 17.033207,1.462891 2.16791,0.449929 3.91262,0.988616 5.07422,1.558593 0.5808,0.28499 1.01423,0.578852 1.27734,0.845703 0.23576,0.239109 0.31539,0.429134 0.33203,0.59961 v 78.390625 c -0.32973,-0.260173 -0.70345,-0.506446 -1.16796,-0.734375 -1.29095,-0.633443 -3.09508,-1.178456 -5.3125,-1.638672 -4.434919,-0.920428 -10.516474,-1.484375 -17.236337,-1.484375 -6.719862,0 -12.803383,0.563947 -17.238281,1.484375 -2.217451,0.460216 -4.021561,1.005229 -5.3125,1.638672 -0.558842,0.274215 -1.00252,0.570141 -1.365235,0.894531 V 19.328884 h 0.197266 c 0.01697,-0.170498 0.09819,-0.360459 0.333984,-0.59961 0.26311,-0.266851 0.694593,-0.560713 1.275391,-0.845703 1.161599,-0.569977 2.906316,-1.108664 5.074219,-1.558593 4.335806,-0.899862 10.371376,-1.462891 17.035156,-1.462891 z m -49.310547,8.804687 c -6.009722,0 -11.449853,0.429463 -15.40039,1.125 -1.975268,0.347771 -3.577063,0.759784 -4.703125,1.228516 -0.563032,0.234367 -1.008212,0.48229 -1.326172,0.75586 -0.183284,0.157696 -0.320537,0.331386 -0.410156,0.515624 h 0.527343 c 0.04828,-0.05649 0.103792,-0.115522 0.173828,-0.175781 0.26082,-0.224408 0.670743,-0.458407 1.207032,-0.68164 1.072578,-0.446467 2.651325,-0.856778 4.607421,-1.201172 3.912194,-0.688788 9.335821,-1.117188 15.324219,-1.117188 5.988398,0 11.410074,0.4284 15.322266,1.117188 1.956096,0.344394 3.534845,0.754705 4.607422,1.201172 0.536287,0.223233 0.946211,0.457232 1.207031,0.68164 0.07004,0.06026 0.125546,0.119298 0.173828,0.175781 h 0.527344 c -0.08962,-0.184238 -0.226872,-0.357928 -0.410156,-0.515624 -0.31796,-0.27357 -0.761189,-0.521493 -1.324219,-0.75586 -1.126064,-0.468732 -2.727857,-0.880745 -4.703125,-1.228516 -3.950537,-0.695537 -9.390669,-1.125 -15.400391,-1.125 z m 49.152344,0 c -6.009722,0 -11.449854,0.429463 -15.400391,1.125 -1.975268,0.347771 -3.577062,0.759784 -4.703125,1.228516 -0.563031,0.234367 -1.008211,0.48229 -1.326171,0.75586 -0.183284,0.157696 -0.320537,0.331386 -0.410157,0.515624 H 62.6096 c 0.04828,-0.05649 0.103792,-0.115522 0.173828,-0.175781 0.26082,-0.224408 0.670743,-0.458407 1.207031,-0.68164 1.072578,-0.446467 2.651326,-0.856778 4.607422,-1.201172 3.912193,-0.688788 9.335821,-1.117188 15.324219,-1.117188 5.988403,0 11.410073,0.4284 15.322265,1.117188 1.956095,0.344394 3.534845,0.754705 4.607425,1.201172 0.53629,0.223233 0.94621,0.457232 1.20703,0.68164 0.07,0.06026 0.12555,0.119298 0.17383,0.175781 H 105.76 c -0.0896,-0.184238 -0.22688,-0.357928 -0.41016,-0.515624 -0.31796,-0.27357 -0.76119,-0.521493 -1.32422,-0.75586 -1.12607,-0.468732 -2.72786,-0.880745 -4.703125,-1.228516 -3.950537,-0.695537 -9.390672,-1.125 -15.400395,-1.125 z m -49.152344,4 c -6.009722,0 -11.449853,0.429463 -15.40039,1.125 -1.975268,0.347771 -3.577063,0.759784 -4.703125,1.228516 -0.563032,0.234367 -1.008212,0.48229 -1.326172,0.75586 -0.183284,0.157696 -0.320537,0.331386 -0.410156,0.515624 h 0.527343 c 0.04828,-0.05649 0.103792,-0.115522 0.173828,-0.175781 0.26082,-0.224408 0.670743,-0.458407 1.207032,-0.68164 1.072578,-0.446467 2.651325,-0.856778 4.607421,-1.201172 3.912194,-0.688788 9.335821,-1.117188 15.324219,-1.117188 5.988398,0 11.410074,0.4284 15.322266,1.117188 1.956096,0.344394 3.534845,0.754705 4.607422,1.201172 0.536287,0.223233 0.946211,0.457232 1.207031,0.68164 0.07004,0.06026 0.125546,0.119298 0.173828,0.175781 h 0.527344 c -0.08962,-0.184238 -0.226872,-0.357928 -0.410156,-0.515624 -0.31796,-0.27357 -0.761189,-0.521493 -1.324219,-0.75586 -1.126064,-0.468732 -2.727857,-0.880745 -4.703125,-1.228516 -3.950537,-0.695537 -9.390669,-1.124999 -15.400391,-1.125 z m 49.152344,0 c -6.009722,0 -11.449854,0.429463 -15.400391,1.125 -1.975268,0.347771 -3.577062,0.759784 -4.703125,1.228516 -0.563031,0.234367 -1.008211,0.48229 -1.326171,0.75586 -0.183284,0.157696 -0.320537,0.331386 -0.410157,0.515624 H 62.6096 c 0.04828,-0.05649 0.103792,-0.115522 0.173828,-0.175781 0.26082,-0.224408 0.670743,-0.458407 1.207031,-0.68164 1.072578,-0.446467 2.651326,-0.856778 4.607422,-1.201172 3.912193,-0.688788 9.335821,-1.117188 15.324219,-1.117188 5.988403,0 11.410073,0.4284 15.322265,1.117188 1.956095,0.344394 3.534845,0.754705 4.607425,1.201172 0.53629,0.223233 0.94621,0.457232 1.20703,0.68164 0.07,0.06026 0.12555,0.119298 0.17383,0.175781 H 105.76 c -0.0896,-0.184238 -0.22688,-0.357928 -0.41016,-0.515624 -0.31796,-0.27357 -0.76119,-0.521493 -1.32422,-0.75586 -1.12607,-0.468732 -2.72786,-0.880745 -4.703125,-1.228516 -3.950537,-0.695537 -9.390672,-1.124999 -15.400395,-1.125 z m -49.152344,4 c -6.009722,0 -11.449853,0.429463 -15.40039,1.125 -1.975268,0.347771 -3.577063,0.759784 -4.703125,1.228516 -0.563032,0.234367 -1.008212,0.48229 -1.326172,0.75586 -0.183284,0.157696 -0.320537,0.331386 -0.410156,0.515624 h 0.527343 c 0.04828,-0.05649 0.103792,-0.115522 0.173828,-0.175781 0.26082,-0.224408 0.670743,-0.458407 1.207032,-0.68164 1.072578,-0.446467 2.651325,-0.856778 4.607421,-1.201172 3.912194,-0.688788 9.335821,-1.117188 15.324219,-1.117188 5.988398,0 11.410074,0.4284 15.322266,1.117188 1.956096,0.344394 3.534845,0.754705 4.607422,1.201172 0.536287,0.223233 0.946211,0.457232 1.207031,0.68164 0.07004,0.06026 0.125546,0.119298 0.173828,0.175781 h 0.527344 c -0.08962,-0.184238 -0.226872,-0.357928 -0.410156,-0.515624 -0.31796,-0.27357 -0.761189,-0.521493 -1.324219,-0.75586 -1.126064,-0.468732 -2.727857,-0.880745 -4.703125,-1.228516 -3.950537,-0.695537 -9.390669,-1.124999 -15.400391,-1.125 z m 49.152344,0 c -6.009722,0 -11.449854,0.429463 -15.400391,1.125 -1.975268,0.347771 -3.577062,0.759784 -4.703125,1.228516 -0.563031,0.234367 -1.008211,0.48229 -1.326171,0.75586 -0.183284,0.157696 -0.320537,0.331386 -0.410157,0.515624 H 62.6096 c 0.04828,-0.05649 0.103792,-0.115522 0.173828,-0.175781 0.26082,-0.224408 0.670743,-0.458407 1.207031,-0.68164 1.072578,-0.446467 2.651326,-0.856778 4.607422,-1.201172 3.912193,-0.688788 9.335821,-1.117188 15.324219,-1.117188 5.988403,0 11.410073,0.4284 15.322265,1.117188 1.956095,0.344394 3.534845,0.754705 4.607425,1.201172 0.53629,0.223233 0.94621,0.457232 1.20703,0.68164 0.07,0.06026 0.12555,0.119298 0.17383,0.175781 H 105.76 c -0.0896,-0.184238 -0.22688,-0.357928 -0.41016,-0.515624 -0.31796,-0.27357 -0.76119,-0.521493 -1.32422,-0.75586 -1.12607,-0.468732 -2.72786,-0.880745 -4.703125,-1.228516 -3.950537,-0.695537 -9.390672,-1.124999 -15.400395,-1.125 z m -49.152344,4 c -6.009722,0 -11.449853,0.429463 -15.40039,1.125 -1.975268,0.347771 -3.577063,0.759784 -4.703125,1.228516 -0.563032,0.234367 -1.008212,0.48229 -1.326172,0.75586 -0.183284,0.157696 -0.320537,0.331386 -0.410156,0.515624 h 0.527343 c 0.04828,-0.05649 0.103792,-0.115522 0.173828,-0.175781 0.26082,-0.224408 0.670743,-0.458407 1.207032,-0.68164 1.072578,-0.446467 2.651325,-0.856778 4.607421,-1.201172 3.912194,-0.688788 9.335821,-1.117188 15.324219,-1.117188 5.988398,0 11.410074,0.4284 15.322266,1.117188 1.956096,0.344394 3.534845,0.754705 4.607422,1.201172 0.536287,0.223233 0.946211,0.457232 1.207031,0.68164 0.07004,0.06026 0.125546,0.119298 0.173828,0.175781 h 0.527344 c -0.08962,-0.184238 -0.226872,-0.357928 -0.410156,-0.515624 -0.31796,-0.27357 -0.761189,-0.521493 -1.324219,-0.75586 -1.126064,-0.468732 -2.727857,-0.880745 -4.703125,-1.228516 -3.950537,-0.695537 -9.390669,-1.125 -15.400391,-1.125 z m 49.152344,0 c -6.009722,0 -11.449854,0.429463 -15.400391,1.125 -1.975268,0.347771 -3.577062,0.759784 -4.703125,1.228516 -0.563031,0.234367 -1.008211,0.48229 -1.326171,0.75586 -0.183284,0.157696 -0.320537,0.331386 -0.410157,0.515624 H 62.6096 c 0.04828,-0.05649 0.103792,-0.115522 0.173828,-0.175781 0.26082,-0.224408 0.670743,-0.458407 1.207031,-0.68164 1.072578,-0.446467 2.651326,-0.856778 4.607422,-1.201172 3.912193,-0.688788 9.335821,-1.117188 15.324219,-1.117188 5.988403,0 11.410073,0.4284 15.322265,1.117188 1.956095,0.344394 3.534845,0.754705 4.607425,1.201172 0.53629,0.223233 0.94621,0.457232 1.20703,0.68164 0.07,0.06026 0.12555,0.119298 0.17383,0.175781 H 105.76 c -0.0896,-0.184238 -0.22688,-0.357928 -0.41016,-0.515624 -0.31796,-0.27357 -0.76119,-0.521493 -1.32422,-0.75586 -1.12607,-0.468732 -2.72786,-0.880745 -4.703125,-1.228516 -3.950537,-0.695537 -9.390672,-1.125 -15.400395,-1.125 z m -49.152344,4 c -6.009722,0 -11.449853,0.429463 -15.40039,1.125 -1.975268,0.347771 -3.577063,0.759784 -4.703125,1.228516 -0.563032,0.234367 -1.008212,0.48229 -1.326172,0.75586 -0.183284,0.157696 -0.320537,0.331386 -0.410156,0.515624 h 0.527343 c 0.04828,-0.05649 0.103792,-0.115522 0.173828,-0.175781 0.26082,-0.224408 0.670743,-0.458407 1.207032,-0.68164 1.072578,-0.446467 2.651325,-0.856778 4.607421,-1.201172 3.912194,-0.688788 9.335821,-1.117188 15.324219,-1.117188 5.988398,0 11.410074,0.4284 15.322266,1.117188 1.956096,0.344394 3.534845,0.754705 4.607422,1.201172 0.536287,0.223233 0.946211,0.457232 1.207031,0.68164 0.07004,0.06026 0.125546,0.119298 0.173828,0.175781 h 0.527344 c -0.08962,-0.184238 -0.226872,-0.357928 -0.410156,-0.515624 -0.31796,-0.27357 -0.761189,-0.521493 -1.324219,-0.75586 -1.126064,-0.468732 -2.727857,-0.880745 -4.703125,-1.228516 -3.950537,-0.695537 -9.390669,-1.125 -15.400391,-1.125 z m 49.152344,0 c -6.009722,0 -11.449854,0.429463 -15.400391,1.125 -1.975268,0.347771 -3.577062,0.759784 -4.703125,1.228516 -0.563031,0.234367 -1.008211,0.48229 -1.326171,0.75586 -0.183284,0.157696 -0.320537,0.331386 -0.410157,0.515624 H 62.6096 c 0.04828,-0.05649 0.103792,-0.115522 0.173828,-0.175781 0.26082,-0.224408 0.670743,-0.458407 1.207031,-0.68164 1.072578,-0.446467 2.651326,-0.856778 4.607422,-1.201172 3.912193,-0.688788 9.335821,-1.117188 15.324219,-1.117188 5.988403,0 11.410073,0.4284 15.322265,1.117188 1.956095,0.344394 3.534845,0.754705 4.607425,1.201172 0.53629,0.223233 0.94621,0.457232 1.20703,0.68164 0.07,0.06026 0.12555,0.119298 0.17383,0.175781 H 105.76 c -0.0896,-0.184238 -0.22688,-0.357928 -0.41016,-0.515624 -0.31796,-0.27357 -0.76119,-0.521493 -1.32422,-0.75586 -1.12607,-0.468732 -2.72786,-0.880745 -4.703125,-1.228516 -3.950537,-0.695537 -9.390672,-1.125 -15.400395,-1.125 z m -49.152344,4 c -6.009722,0 -11.449853,0.429463 -15.40039,1.125 -1.975268,0.347771 -3.577063,0.759784 -4.703125,1.228516 -0.563032,0.234367 -1.008212,0.48229 -1.326172,0.75586 -0.183284,0.157696 -0.320537,0.331386 -0.410156,0.515624 h 0.527343 c 0.04828,-0.05649 0.103792,-0.115522 0.173828,-0.175781 0.26082,-0.224408 0.670743,-0.458407 1.207032,-0.68164 1.072578,-0.446467 2.651325,-0.856778 4.607421,-1.201172 3.912194,-0.688788 9.335821,-1.117188 15.324219,-1.117188 5.988398,0 11.410074,0.4284 15.322266,1.117188 1.956096,0.344394 3.534845,0.754705 4.607422,1.201172 0.536287,0.223233 0.946211,0.457232 1.207031,0.68164 0.07004,0.06026 0.125546,0.119298 0.173828,0.175781 h 0.527344 c -0.08962,-0.184238 -0.226872,-0.357928 -0.410156,-0.515624 -0.31796,-0.27357 -0.761189,-0.521493 -1.324219,-0.75586 -1.126064,-0.468732 -2.727857,-0.880745 -4.703125,-1.228516 -3.950537,-0.695537 -9.390669,-1.125 -15.400391,-1.125 z m 49.152344,0 c -6.009722,0 -11.449854,0.429463 -15.400391,1.125 -1.975268,0.347771 -3.577062,0.759784 -4.703125,1.228516 -0.563031,0.234367 -1.008211,0.48229 -1.326171,0.75586 -0.183284,0.157696 -0.320537,0.331386 -0.410157,0.515624 H 62.6096 c 0.04828,-0.05649 0.103792,-0.115522 0.173828,-0.175781 0.26082,-0.224408 0.670743,-0.458407 1.207031,-0.68164 1.072578,-0.446467 2.651326,-0.856778 4.607422,-1.201172 3.912193,-0.688788 9.335821,-1.117188 15.324219,-1.117188 5.988403,0 11.410073,0.4284 15.322265,1.117188 1.956095,0.344394 3.534845,0.754705 4.607425,1.201172 0.53629,0.223233 0.94621,0.457232 1.20703,0.68164 0.07,0.06026 0.12555,0.119298 0.17383,0.175781 H 105.76 c -0.0896,-0.184238 -0.22688,-0.357928 -0.41016,-0.515624 -0.31796,-0.27357 -0.76119,-0.521493 -1.32422,-0.75586 -1.12607,-0.468732 -2.72786,-0.880745 -4.703125,-1.228516 -3.950537,-0.695537 -9.390672,-1.125 -15.400395,-1.125 z m -49.152344,4 c -6.009722,0 -11.449853,0.429463 -15.40039,1.125 -1.975268,0.347771 -3.577063,0.759784 -4.703125,1.228516 -0.563032,0.234367 -1.008212,0.48229 -1.326172,0.75586 -0.183284,0.157696 -0.320537,0.331386 -0.410156,0.515624 h 0.527343 c 0.04828,-0.05649 0.103792,-0.115522 0.173828,-0.175781 0.26082,-0.224408 0.670743,-0.458407 1.207032,-0.68164 1.072578,-0.446467 2.651325,-0.856778 4.607421,-1.201172 3.912194,-0.688788 9.335821,-1.117188 15.324219,-1.117188 5.988398,0 11.410074,0.4284 15.322266,1.117188 1.956096,0.344394 3.534845,0.754705 4.607422,1.201172 0.536287,0.223233 0.946211,0.457232 1.207031,0.68164 0.07004,0.06026 0.125546,0.119298 0.173828,0.175781 h 0.527344 c -0.08962,-0.184238 -0.226872,-0.357928 -0.410156,-0.515624 -0.31796,-0.27357 -0.761189,-0.521493 -1.324219,-0.75586 -1.126064,-0.468732 -2.727857,-0.880745 -4.703125,-1.228516 -3.950537,-0.695537 -9.390669,-1.125 -15.400391,-1.125 z m 49.152344,0 c -6.009722,0 -11.449854,0.429463 -15.400391,1.125 -1.975268,0.347771 -3.577062,0.759784 -4.703125,1.228516 -0.563031,0.234367 -1.008211,0.48229 -1.326171,0.75586 -0.183284,0.157696 -0.320537,0.331386 -0.410157,0.515624 H 62.6096 c 0.04828,-0.05649 0.103792,-0.115522 0.173828,-0.175781 0.26082,-0.224408 0.670743,-0.458407 1.207031,-0.68164 1.072578,-0.446467 2.651326,-0.856778 4.607422,-1.201172 3.912193,-0.688788 9.335821,-1.117188 15.324219,-1.117188 5.988403,0 11.410073,0.4284 15.322265,1.117188 1.956095,0.344394 3.534845,0.754705 4.607425,1.201172 0.53629,0.223233 0.94621,0.457232 1.20703,0.68164 0.07,0.06026 0.12555,0.119298 0.17383,0.175781 H 105.76 c -0.0896,-0.184238 -0.22688,-0.357928 -0.41016,-0.515624 -0.31796,-0.27357 -0.76119,-0.521493 -1.32422,-0.75586 -1.12607,-0.468732 -2.72786,-0.880745 -4.703125,-1.228516 -3.950537,-0.695537 -9.390672,-1.125 -15.400395,-1.125 z m -49.152344,4 c -6.009722,0 -11.449853,0.429463 -15.40039,1.125 -1.975268,0.347771 -3.577063,0.759784 -4.703125,1.228516 -0.563032,0.234367 -1.008212,0.48229 -1.326172,0.75586 -0.183284,0.157696 -0.320537,0.331386 -0.410156,0.515624 h 0.527343 c 0.04828,-0.05649 0.103792,-0.115522 0.173828,-0.175781 0.26082,-0.224408 0.670743,-0.458407 1.207032,-0.68164 1.072578,-0.446467 2.651325,-0.856778 4.607421,-1.201172 3.912194,-0.688788 9.335821,-1.117188 15.324219,-1.117188 5.988398,0 11.410074,0.4284 15.322266,1.117188 1.956096,0.344394 3.534845,0.754705 4.607422,1.201172 0.536287,0.223233 0.946211,0.457232 1.207031,0.68164 0.07004,0.06026 0.125546,0.119298 0.173828,0.175781 h 0.527344 c -0.08962,-0.184238 -0.226872,-0.357928 -0.410156,-0.515624 -0.31796,-0.27357 -0.761189,-0.521493 -1.324219,-0.75586 -1.126064,-0.468732 -2.727857,-0.880745 -4.703125,-1.228516 -3.950537,-0.695537 -9.390669,-1.125 -15.400391,-1.125 z m 49.152344,0 c -6.009722,0 -11.449854,0.429463 -15.400391,1.125 -1.975268,0.347771 -3.577062,0.759784 -4.703125,1.228516 -0.563031,0.234367 -1.008211,0.48229 -1.326171,0.75586 -0.183284,0.157696 -0.320537,0.331386 -0.410157,0.515624 H 62.6096 c 0.04828,-0.05649 0.103792,-0.115522 0.173828,-0.175781 0.26082,-0.224408 0.670743,-0.458407 1.207031,-0.68164 1.072578,-0.446467 2.651326,-0.856778 4.607422,-1.201172 3.912193,-0.688788 9.335821,-1.117188 15.324219,-1.117188 5.988403,0 11.410073,0.4284 15.322265,1.117188 1.956095,0.344394 3.534845,0.754705 4.607425,1.201172 0.53629,0.223233 0.94621,0.457232 1.20703,0.68164 0.07,0.06026 0.12555,0.119298 0.17383,0.175781 H 105.76 c -0.0896,-0.184238 -0.22688,-0.357928 -0.41016,-0.515624 -0.31796,-0.27357 -0.76119,-0.521493 -1.32422,-0.75586 -1.12607,-0.468732 -2.72786,-0.880745 -4.703125,-1.228516 -3.950537,-0.695537 -9.390672,-1.125 -15.400395,-1.125 z m -49.152344,4 c -6.009722,0 -11.449853,0.429463 -15.40039,1.125 -1.975268,0.347771 -3.577063,0.759784 -4.703125,1.228516 -0.563032,0.234367 -1.008212,0.48229 -1.326172,0.75586 -0.183284,0.157696 -0.320537,0.331386 -0.410156,0.515624 h 0.527343 c 0.04828,-0.05649 0.103792,-0.115522 0.173828,-0.175781 0.26082,-0.224408 0.670743,-0.458407 1.207032,-0.68164 1.072578,-0.446467 2.651325,-0.856778 4.607421,-1.201172 3.912194,-0.688788 9.335821,-1.117188 15.324219,-1.117188 5.988398,0 11.410074,0.4284 15.322266,1.117188 1.956096,0.344394 3.534845,0.754705 4.607422,1.201172 0.536287,0.223233 0.946211,0.457232 1.207031,0.68164 0.07004,0.06026 0.125546,0.119298 0.173828,0.175781 h 0.527344 c -0.08962,-0.184238 -0.226872,-0.357928 -0.410156,-0.515624 -0.31796,-0.27357 -0.761189,-0.521493 -1.324219,-0.75586 -1.126064,-0.468732 -2.727857,-0.880745 -4.703125,-1.228516 -3.950537,-0.695537 -9.390669,-1.125 -15.400391,-1.125 z m 49.152344,0 c -6.009722,0 -11.449854,0.429463 -15.400391,1.125 -1.975268,0.347771 -3.577062,0.759784 -4.703125,1.228516 -0.563031,0.234367 -1.008211,0.48229 -1.326171,0.75586 -0.183284,0.157696 -0.320537,0.331386 -0.410157,0.515624 H 62.6096 c 0.04828,-0.05649 0.103792,-0.115522 0.173828,-0.175781 0.26082,-0.224408 0.670743,-0.458407 1.207031,-0.68164 1.072578,-0.446467 2.651326,-0.856778 4.607422,-1.201172 3.912193,-0.688788 9.335821,-1.117188 15.324219,-1.117188 5.988403,0 11.410073,0.4284 15.322265,1.117188 1.956095,0.344394 3.534845,0.754705 4.607425,1.201172 0.53629,0.223233 0.94621,0.457232 1.20703,0.68164 0.07,0.06026 0.12555,0.119298 0.17383,0.175781 H 105.76 c -0.0896,-0.184238 -0.22688,-0.357928 -0.41016,-0.515624 -0.31796,-0.27357 -0.76119,-0.521493 -1.32422,-0.75586 -1.12607,-0.468732 -2.72786,-0.880745 -4.703125,-1.228516 -3.950537,-0.695537 -9.390672,-1.125 -15.400395,-1.125 z m -49.152344,4 c -6.009722,0 -11.449853,0.429463 -15.40039,1.125 -1.975268,0.347771 -3.577063,0.759784 -4.703125,1.228516 -0.563032,0.234367 -1.008212,0.48229 -1.326172,0.75586 -0.183284,0.157696 -0.320537,0.331386 -0.410156,0.515624 h 0.527343 c 0.04828,-0.05649 0.103792,-0.115522 0.173828,-0.175781 0.26082,-0.224408 0.670743,-0.458407 1.207032,-0.68164 1.072578,-0.446467 2.651325,-0.856778 4.607421,-1.201172 3.912194,-0.688788 9.335821,-1.117188 15.324219,-1.117188 5.988398,0 11.410074,0.4284 15.322266,1.117188 1.956096,0.344394 3.534845,0.754705 4.607422,1.201172 0.536287,0.223233 0.946211,0.457232 1.207031,0.68164 0.07004,0.06026 0.125546,0.119298 0.173828,0.175781 h 0.527344 c -0.08962,-0.184238 -0.226872,-0.357928 -0.410156,-0.515624 -0.31796,-0.27357 -0.761189,-0.521493 -1.324219,-0.75586 -1.126064,-0.468732 -2.727857,-0.880745 -4.703125,-1.228516 -3.950537,-0.695537 -9.390669,-1.125 -15.400391,-1.125 z m 49.152344,0 c -6.009722,0 -11.449854,0.429463 -15.400391,1.125 -1.975268,0.347771 -3.577062,0.759784 -4.703125,1.228516 -0.563031,0.234367 -1.008211,0.48229 -1.326171,0.75586 -0.183284,0.157696 -0.320537,0.331386 -0.410157,0.515624 H 62.6096 c 0.04828,-0.05649 0.103792,-0.115522 0.173828,-0.175781 0.26082,-0.224408 0.670743,-0.458407 1.207031,-0.68164 1.072578,-0.446467 2.651326,-0.856778 4.607422,-1.201172 3.912193,-0.688788 9.335821,-1.117188 15.324219,-1.117188 5.988403,0 11.410073,0.4284 15.322265,1.117188 1.956095,0.344394 3.534845,0.754705 4.607425,1.201172 0.53629,0.223233 0.94621,0.457232 1.20703,0.68164 0.07,0.06026 0.12555,0.119298 0.17383,0.175781 H 105.76 c -0.0896,-0.184238 -0.22688,-0.357928 -0.41016,-0.515624 -0.31796,-0.27357 -0.76119,-0.521493 -1.32422,-0.75586 -1.12607,-0.468732 -2.72786,-0.880745 -4.703125,-1.228516 -3.950537,-0.695537 -9.390672,-1.125 -15.400395,-1.125 z m -49.152344,4 c -6.009722,0 -11.449853,0.429463 -15.40039,1.125 -1.975268,0.347771 -3.577063,0.759784 -4.703125,1.228516 -0.563032,0.234367 -1.008212,0.48229 -1.326172,0.75586 -0.183284,0.157696 -0.320537,0.331386 -0.410156,0.515624 h 0.527343 c 0.04828,-0.05649 0.103792,-0.115522 0.173828,-0.175781 0.26082,-0.224408 0.670743,-0.458407 1.207032,-0.68164 1.072578,-0.446467 2.651325,-0.856778 4.607421,-1.201172 3.912194,-0.688788 9.335821,-1.117188 15.324219,-1.117188 5.988398,0 11.410074,0.4284 15.322266,1.117188 1.956096,0.344394 3.534845,0.754705 4.607422,1.201172 0.536287,0.223233 0.946211,0.457232 1.207031,0.68164 0.07004,0.06026 0.125546,0.119298 0.173828,0.175781 h 0.527344 c -0.08962,-0.184238 -0.226872,-0.357928 -0.410156,-0.515624 -0.31796,-0.27357 -0.761189,-0.521493 -1.324219,-0.75586 -1.126064,-0.468732 -2.727857,-0.880745 -4.703125,-1.228516 -3.950537,-0.695537 -9.390669,-1.125 -15.400391,-1.125 z m 49.152344,0 c -6.009722,0 -11.449854,0.429463 -15.400391,1.125 -1.975268,0.347771 -3.577062,0.759784 -4.703125,1.228516 -0.563031,0.234367 -1.008211,0.48229 -1.326171,0.75586 -0.183284,0.157696 -0.320537,0.331386 -0.410157,0.515624 H 62.6096 c 0.04828,-0.05649 0.103792,-0.115522 0.173828,-0.175781 0.26082,-0.224408 0.670743,-0.458407 1.207031,-0.68164 1.072578,-0.446467 2.651326,-0.856778 4.607422,-1.201172 3.912193,-0.688788 9.335821,-1.117188 15.324219,-1.117188 5.988403,0 11.410073,0.4284 15.322265,1.117188 1.956095,0.344394 3.534845,0.754705 4.607425,1.201172 0.53629,0.223233 0.94621,0.457232 1.20703,0.68164 0.07,0.06026 0.12555,0.119298 0.17383,0.175781 H 105.76 c -0.0896,-0.184238 -0.22688,-0.357928 -0.41016,-0.515624 -0.31796,-0.27357 -0.76119,-0.521493 -1.32422,-0.75586 -1.12607,-0.468732 -2.72786,-0.880745 -4.703125,-1.228516 -3.950537,-0.695537 -9.390672,-1.125 -15.400395,-1.125 z m -49.152344,4 c -6.009722,0 -11.449853,0.429463 -15.40039,1.125 -1.975268,0.347771 -3.577063,0.759784 -4.703125,1.228516 -0.563032,0.234367 -1.008212,0.48229 -1.326172,0.75586 -0.183284,0.157696 -0.320537,0.331386 -0.410156,0.515624 h 0.527343 c 0.04828,-0.05649 0.103792,-0.115522 0.173828,-0.175781 0.26082,-0.224408 0.670743,-0.458407 1.207032,-0.68164 1.072578,-0.446467 2.651325,-0.856778 4.607421,-1.201172 3.912194,-0.688788 9.335821,-1.117188 15.324219,-1.117188 5.988398,0 11.410074,0.4284 15.322266,1.117188 1.956096,0.344394 3.534845,0.754705 4.607422,1.201172 0.536287,0.223233 0.946211,0.457232 1.207031,0.68164 0.07004,0.06026 0.125546,0.119298 0.173828,0.175781 h 0.527344 c -0.08962,-0.184238 -0.226872,-0.357928 -0.410156,-0.515624 -0.31796,-0.27357 -0.761189,-0.521493 -1.324219,-0.75586 -1.126064,-0.468732 -2.727857,-0.880745 -4.703125,-1.228516 -3.950537,-0.695537 -9.390669,-1.125 -15.400391,-1.125 z m 49.152344,0 c -6.009722,0 -11.449854,0.429463 -15.400391,1.125 -1.975268,0.347771 -3.577062,0.759784 -4.703125,1.228516 -0.563031,0.234367 -1.008211,0.48229 -1.326171,0.75586 -0.183284,0.157696 -0.320537,0.331386 -0.410157,0.515624 H 62.6096 c 0.04828,-0.05649 0.103792,-0.115522 0.173828,-0.175781 0.26082,-0.224408 0.670743,-0.458407 1.207031,-0.68164 1.072578,-0.446467 2.651326,-0.856778 4.607422,-1.201172 3.912193,-0.688788 9.335821,-1.117188 15.324219,-1.117188 5.988403,0 11.410073,0.4284 15.322265,1.117188 1.956095,0.344394 3.534845,0.754705 4.607425,1.201172 0.53629,0.223233 0.94621,0.457232 1.20703,0.68164 0.07,0.06026 0.12555,0.119298 0.17383,0.175781 H 105.76 c -0.0896,-0.184238 -0.22688,-0.357928 -0.41016,-0.515624 -0.31796,-0.27357 -0.76119,-0.521493 -1.32422,-0.75586 -1.12607,-0.468732 -2.72786,-0.880745 -4.703125,-1.228516 -3.950537,-0.695537 -9.390672,-1.125 -15.400395,-1.125 z m -49.152344,4 c -6.009722,0 -11.449853,0.429463 -15.40039,1.125 -1.975268,0.347771 -3.577063,0.759784 -4.703125,1.228516 -0.563032,0.234367 -1.008212,0.48229 -1.326172,0.75586 -0.183284,0.157696 -0.320537,0.331386 -0.410156,0.515624 h 0.527343 c 0.04828,-0.05649 0.103792,-0.115522 0.173828,-0.175781 0.26082,-0.224408 0.670743,-0.458407 1.207032,-0.68164 1.072578,-0.446467 2.651325,-0.856778 4.607421,-1.201172 3.912194,-0.688788 9.335821,-1.117188 15.324219,-1.117188 5.988398,0 11.410074,0.4284 15.322266,1.117188 1.956096,0.344394 3.534845,0.754705 4.607422,1.201172 0.536287,0.223233 0.946211,0.457232 1.207031,0.68164 0.07004,0.06026 0.125546,0.119298 0.173828,0.175781 h 0.527344 c -0.08962,-0.184238 -0.226872,-0.357928 -0.410156,-0.515624 -0.31796,-0.27357 -0.761189,-0.521493 -1.324219,-0.75586 -1.126064,-0.468732 -2.727857,-0.880745 -4.703125,-1.228516 -3.950537,-0.695537 -9.390669,-1.125 -15.400391,-1.125 z m 49.152344,0 c -6.009722,0 -11.449854,0.429463 -15.400391,1.125 -1.975268,0.347771 -3.577062,0.759784 -4.703125,1.228516 -0.563031,0.234367 -1.008211,0.48229 -1.326171,0.75586 -0.183284,0.157696 -0.320537,0.331386 -0.410157,0.515624 H 62.6096 c 0.04828,-0.05649 0.103792,-0.115522 0.173828,-0.175781 0.26082,-0.224408 0.670743,-0.458407 1.207031,-0.68164 1.072578,-0.446467 2.651326,-0.856778 4.607422,-1.201172 3.912193,-0.688788 9.335821,-1.117188 15.324219,-1.117188 5.988403,0 11.410073,0.4284 15.322265,1.117188 1.956095,0.344394 3.534845,0.754705 4.607425,1.201172 0.53629,0.223233 0.94621,0.457232 1.20703,0.68164 0.07,0.06026 0.12555,0.119298 0.17383,0.175781 H 105.76 c -0.0896,-0.184238 -0.22688,-0.357928 -0.41016,-0.515624 -0.31796,-0.27357 -0.76119,-0.521493 -1.32422,-0.75586 -1.12607,-0.468732 -2.72786,-0.880745 -4.703125,-1.228516 -3.950537,-0.695537 -9.390672,-1.125 -15.400395,-1.125 z m -49.152344,4 c -6.009722,0 -11.449853,0.429463 -15.40039,1.125 -1.975268,0.347771 -3.577063,0.759784 -4.703125,1.228516 -0.563032,0.234367 -1.008212,0.48229 -1.326172,0.75586 -0.183284,0.157696 -0.320537,0.331386 -0.410156,0.515624 h 0.527343 c 0.04828,-0.05649 0.103792,-0.115522 0.173828,-0.175781 0.26082,-0.224408 0.670743,-0.458407 1.207032,-0.68164 1.072578,-0.446467 2.651325,-0.856778 4.607421,-1.201172 3.912194,-0.688788 9.335821,-1.117188 15.324219,-1.117188 5.988398,0 11.410074,0.4284 15.322266,1.117188 1.956096,0.344394 3.534845,0.754705 4.607422,1.201172 0.536287,0.223233 0.946211,0.457232 1.207031,0.68164 0.07004,0.06026 0.125546,0.119298 0.173828,0.175781 h 0.527344 c -0.08962,-0.184238 -0.226872,-0.357928 -0.410156,-0.515624 -0.31796,-0.27357 -0.761189,-0.521493 -1.324219,-0.75586 -1.126064,-0.468732 -2.727857,-0.880745 -4.703125,-1.228516 -3.950537,-0.695537 -9.390669,-1.125 -15.400391,-1.125 z m 49.152344,0 c -6.009722,0 -11.449854,0.429463 -15.400391,1.125 -1.975268,0.347771 -3.577062,0.759784 -4.703125,1.228516 -0.563031,0.234367 -1.008211,0.48229 -1.326171,0.75586 -0.183284,0.157696 -0.320537,0.331386 -0.410157,0.515624 H 62.6096 c 0.04828,-0.05649 0.103792,-0.115522 0.173828,-0.175781 0.26082,-0.224408 0.670743,-0.458407 1.207031,-0.68164 1.072578,-0.446467 2.651326,-0.856778 4.607422,-1.201172 3.912193,-0.688788 9.335821,-1.117188 15.324219,-1.117188 5.988403,0 11.410073,0.4284 15.322265,1.117188 1.956095,0.344394 3.534845,0.754705 4.607425,1.201172 0.53629,0.223233 0.94621,0.457232 1.20703,0.68164 0.07,0.06026 0.12555,0.119298 0.17383,0.175781 H 105.76 c -0.0896,-0.184238 -0.22688,-0.357928 -0.41016,-0.515624 -0.31796,-0.27357 -0.76119,-0.521493 -1.32422,-0.75586 -1.12607,-0.468732 -2.72786,-0.880745 -4.703125,-1.228516 -3.950537,-0.695537 -9.390672,-1.125 -15.400395,-1.125 z m -49.152344,4 c -6.009722,0 -11.449853,0.429463 -15.40039,1.125 -1.975268,0.347771 -3.577063,0.759784 -4.703125,1.228516 -0.563032,0.234367 -1.008212,0.48229 -1.326172,0.75586 -0.183284,0.157696 -0.320537,0.331386 -0.410156,0.515624 h 0.527343 c 0.04828,-0.05649 0.103792,-0.115522 0.173828,-0.175781 0.26082,-0.224408 0.670743,-0.458407 1.207032,-0.68164 1.072578,-0.446467 2.651325,-0.856778 4.607421,-1.201172 3.912194,-0.688788 9.335821,-1.117188 15.324219,-1.117188 5.988398,0 11.410074,0.4284 15.322266,1.117188 1.956096,0.344394 3.534845,0.754705 4.607422,1.201172 0.536287,0.223233 0.946211,0.457232 1.207031,0.68164 0.07004,0.06026 0.125546,0.119298 0.173828,0.175781 h 0.527344 c -0.08962,-0.184238 -0.226872,-0.357928 -0.410156,-0.515624 -0.31796,-0.27357 -0.761189,-0.521493 -1.324219,-0.75586 -1.126064,-0.468732 -2.727857,-0.880745 -4.703125,-1.228516 -3.950537,-0.695537 -9.390669,-1.125 -15.400391,-1.125 z m 49.152344,0 c -6.009722,0 -11.449854,0.429463 -15.400391,1.125 -1.975268,0.347771 -3.577062,0.759784 -4.703125,1.228516 -0.563031,0.234367 -1.008211,0.48229 -1.326171,0.75586 -0.183284,0.157696 -0.320537,0.331386 -0.410157,0.515624 H 62.6096 c 0.04828,-0.05649 0.103792,-0.115522 0.173828,-0.175781 0.26082,-0.224408 0.670743,-0.458407 1.207031,-0.68164 1.072578,-0.446467 2.651326,-0.856778 4.607422,-1.201172 3.912193,-0.688788 9.335821,-1.117188 15.324219,-1.117188 5.988403,0 11.410073,0.4284 15.322265,1.117188 1.956095,0.344394 3.534845,0.754705 4.607425,1.201172 0.53629,0.223233 0.94621,0.457232 1.20703,0.68164 0.07,0.06026 0.12555,0.119298 0.17383,0.175781 H 105.76 c -0.0896,-0.184238 -0.22688,-0.357928 -0.41016,-0.515624 -0.31796,-0.27357 -0.76119,-0.521493 -1.32422,-0.75586 -1.12607,-0.468732 -2.72786,-0.880745 -4.703125,-1.228516 -3.950537,-0.695537 -9.390672,-1.125 -15.400395,-1.125 z m -49.152344,4 c -6.009722,0 -11.449853,0.429463 -15.40039,1.125 -1.975268,0.347771 -3.577063,0.759784 -4.703125,1.228516 -0.563032,0.234367 -1.008212,0.48229 -1.326172,0.75586 -0.183284,0.157696 -0.320537,0.331386 -0.410156,0.515624 h 0.527343 c 0.04828,-0.05649 0.103792,-0.115522 0.173828,-0.175781 0.26082,-0.224408 0.670743,-0.458407 1.207032,-0.68164 1.072578,-0.446467 2.651325,-0.856778 4.607421,-1.201172 3.912194,-0.688788 9.335821,-1.117188 15.324219,-1.117188 5.988398,0 11.410074,0.4284 15.322266,1.117188 1.956096,0.344394 3.534845,0.754705 4.607422,1.201172 0.536287,0.223233 0.946211,0.457232 1.207031,0.68164 0.07004,0.06026 0.125546,0.119298 0.173828,0.175781 h 0.527344 c -0.08962,-0.184238 -0.226872,-0.357928 -0.410156,-0.515624 -0.31796,-0.27357 -0.761189,-0.521493 -1.324219,-0.75586 -1.126064,-0.468732 -2.727857,-0.880745 -4.703125,-1.228516 -3.950537,-0.695537 -9.390669,-1.125 -15.400391,-1.125 z m 49.152344,0 c -6.009722,0 -11.449854,0.429463 -15.400391,1.125 -1.975268,0.347771 -3.577062,0.759784 -4.703125,1.228516 -0.563031,0.234367 -1.008211,0.48229 -1.326171,0.75586 -0.183284,0.157696 -0.320537,0.331386 -0.410157,0.515624 H 62.6096 c 0.04828,-0.05649 0.103792,-0.115522 0.173828,-0.175781 0.26082,-0.224408 0.670743,-0.458407 1.207031,-0.68164 1.072578,-0.446467 2.651326,-0.856778 4.607422,-1.201172 3.912193,-0.688788 9.335821,-1.117188 15.324219,-1.117188 5.988403,0 11.410073,0.4284 15.322265,1.117188 1.956095,0.344394 3.534845,0.754705 4.607425,1.201172 0.53629,0.223233 0.94621,0.457232 1.20703,0.68164 0.07,0.06026 0.12555,0.119298 0.17383,0.175781 H 105.76 c -0.0896,-0.184238 -0.22688,-0.357928 -0.41016,-0.515624 -0.31796,-0.27357 -0.76119,-0.521493 -1.32422,-0.75586 -1.12607,-0.468732 -2.72786,-0.880745 -4.703125,-1.228516 -3.950537,-0.695537 -9.390672,-1.125 -15.400395,-1.125 z m -49.152344,4 c -6.009722,0 -11.449853,0.429463 -15.40039,1.125 -1.975268,0.347771 -3.577063,0.759784 -4.703125,1.228516 -0.563032,0.234367 -1.008212,0.48229 -1.326172,0.75586 -0.183284,0.157696 -0.320537,0.331386 -0.410156,0.515624 h 0.527343 c 0.04828,-0.05649 0.103792,-0.115522 0.173828,-0.175781 0.26082,-0.224408 0.670743,-0.458407 1.207032,-0.68164 1.072578,-0.446467 2.651325,-0.856778 4.607421,-1.201172 3.912194,-0.688788 9.335821,-1.117188 15.324219,-1.117188 5.988398,0 11.410074,0.4284 15.322266,1.117188 1.956096,0.344394 3.534845,0.754705 4.607422,1.201172 0.536287,0.223233 0.946211,0.457232 1.207031,0.68164 0.07004,0.06026 0.125546,0.119298 0.173828,0.175781 h 0.527344 c -0.08962,-0.184238 -0.226872,-0.357928 -0.410156,-0.515624 -0.31796,-0.27357 -0.761189,-0.521493 -1.324219,-0.75586 -1.126064,-0.468732 -2.727857,-0.880745 -4.703125,-1.228516 -3.950537,-0.695537 -9.390669,-1.125 -15.400391,-1.125 z m 49.152344,0 c -6.009722,0 -11.449854,0.429463 -15.400391,1.125 -1.975268,0.347771 -3.577062,0.759784 -4.703125,1.228516 -0.563031,0.234367 -1.008211,0.48229 -1.326171,0.75586 -0.183284,0.157696 -0.320537,0.331386 -0.410157,0.515624 H 62.6096 c 0.04828,-0.05649 0.103792,-0.115522 0.173828,-0.175781 0.26082,-0.224408 0.670743,-0.458407 1.207031,-0.68164 1.072578,-0.446467 2.651326,-0.856778 4.607422,-1.201172 3.912193,-0.688788 9.335821,-1.117188 15.324219,-1.117188 5.988403,0 11.410073,0.4284 15.322265,1.117188 1.956095,0.344394 3.534845,0.754705 4.607425,1.201172 0.53629,0.223233 0.94621,0.457232 1.20703,0.68164 0.07,0.06026 0.12555,0.119298 0.17383,0.175781 H 105.76 c -0.0896,-0.184238 -0.22688,-0.357928 -0.41016,-0.515624 -0.31796,-0.27357 -0.76119,-0.521493 -1.32422,-0.75586 -1.12607,-0.468732 -2.72786,-0.880745 -4.703125,-1.228516 -3.950537,-0.695537 -9.390672,-1.125 -15.400395,-1.125 z m -49.285156,7.195313 c 6.66378,0 12.697397,0.563029 17.033203,1.462891 2.167903,0.449929 3.914573,0.988616 5.076172,1.558593 0.580798,0.28499 1.012284,0.578852 1.27539,0.845703 0.06293,0.06382 0.09036,0.116437 0.132813,0.173829 -3.83582,-2.447566 -13.025661,-3.719148 -22.255859,-3.744141 -0.155711,-4.22e-4 -0.311106,-2.87e-4 -0.466797,0 -9.412613,0.01735 -18.753235,1.331152 -22.365235,4.003906 v -1.509765 c 1.137528,-0.483156 2.665655,-0.940126 4.535156,-1.328125 4.335807,-0.899862 10.371373,-1.462891 17.035157,-1.462891 z m 49.443359,0 c 6.663781,0 12.697403,0.563029 17.033207,1.462891 1.90828,0.396045 3.46206,0.863029 4.60547,1.357422 v 1.480468 c -3.61201,-2.672754 -12.952628,-3.986556 -22.365239,-4.003906 -0.155693,-2.87e-4 -0.311086,-4.22e-4 -0.466797,0 -9.329535,0.02526 -18.625078,1.322719 -22.384766,3.822266 0.05016,-0.07944 0.102247,-0.159543 0.193359,-0.251954 0.26311,-0.266851 0.694593,-0.560713 1.275391,-0.845703 1.161599,-0.569977 2.906316,-1.108664 5.074219,-1.558593 4.335806,-0.899862 10.371376,-1.462891 17.035156,-1.462891 z m -48.333984,1.113281 c 0.640299,6.39e-4 1.281325,0.007 1.919922,0.01953 -7.933268,-0.004 -15.841103,1.064093 -19.716797,3.251953 v -1.308594 a 0.13493424,0.22046318 0 0 0 -0.0039,-0.05273 c 4.636907,-1.284595 11.210234,-1.916735 17.800782,-1.910156 z m 47.292968,0 c 6.590548,-0.0066 13.163789,0.625558 17.800783,1.910156 a 0.13493424,0.22046318 0 0 0 -0.004,0.05273 v 1.308594 C 96.960468,97.058993 89.052634,95.9909 81.119366,95.9949 c 0.638595,-0.01253 1.279622,-0.01889 1.919921,-0.01953 z M 32.4221,96.953884 c -4.485506,0.385869 -8.452898,1.166042 -10.908203,2.349609 v -0.662109 c 2.980737,-0.87106 6.807342,-1.434194 10.908203,-1.6875 z m 53.941406,0 c 4.100861,0.253306 7.927466,0.81644 10.908203,1.6875 v 0.662109 c -2.455305,-1.183567 -6.422697,-1.96374 -10.908203,-2.349609 z" />
  </g>
</svg>
