<?xml version="1.0" encoding="UTF-8" standalone="no"?>
<!-- Created with Inkscape (http://www.inkscape.org/) -->

<svg
   width="120"
   height="120"
   viewBox="0 0 120 120"
   version="1.1"
   id="svg5"
   xmlns:inkscape="http://www.inkscape.org/namespaces/inkscape"
   xmlns:sodipodi="http://sodipodi.sourceforge.net/DTD/sodipodi-0.dtd"
   xmlns="http://www.w3.org/2000/svg"
   xmlns:svg="http://www.w3.org/2000/svg">
  <sodipodi:namedview
     id="namedview7"
     pagecolor="#505050"
     bordercolor="#ffffff"
     borderopacity="1"
     inkscape:showpageshadow="0"
     inkscape:pageopacity="0"
     inkscape:pagecheckerboard="1"
     inkscape:deskcolor="#505050"
     inkscape:document-units="px"
     showgrid="false" />
  <defs
     id="defs2" />
  <g
     inkscape:label="Layer 1"
     inkscape:groupmode="layer"
     id="layer1">
    <ellipse
       style="fill:#6b6e70;fill-opacity:0.380392;stroke:none;stroke-width:7.76944;stroke-linecap:round;stroke-linejoin:round;stroke-dasharray:none;stroke-opacity:1"
       id="path1255"
       cx="82.652397"
       cy="45.103165"
       rx="25.425863"
       ry="17.57655" />
    <path
       id="path234"
       style="fill:#86c232;stroke-width:0.674934;stroke-linecap:round"
       d="m 82.591797,8.1582031 a 28.513344,28.513344 0 0 0 -28.513672,28.5117189 28.513344,28.513344 0 0 0 6.396484,17.914062 28.513344,28.513344 0 0 1 -0.05078,-0.05859 4,4 0 0 0 -0.09961,0.06641 L 29.115234,85.800781 a 4,4 0 0 0 0,5.658203 4,4 0 0 0 5.65625,0 L 65.980469,60.25 A 4,4 0 0 0 66.208984,59.990234 28.513344,28.513344 0 0 1 64.519531,58.667969 28.513344,28.513344 0 0 0 82.591797,65.183594 28.513344,28.513344 0 0 0 111.10547,36.669922 28.513344,28.513344 0 0 0 82.591797,8.1582031 Z m 0,2.6816409 A 25.347464,25.830956 0 0 1 107.93945,36.669922 25.347464,25.830956 0 0 1 82.591797,62.501953 25.347464,25.830956 0 0 1 57.244141,36.669922 25.347464,25.830956 0 0 1 82.591797,10.839844 Z M 61.845703,56.146484 A 28.513344,28.513344 0 0 0 63,57.298828 28.513344,28.513344 0 0 1 61.845703,56.146484 Z" />
  </g>
</svg>
